<svg xmlns="http://www.w3.org/2000/svg" version="1.1" xmlns:xlink="http://www.w3.org/1999/xlink" xmlns:svgjs="http://svgjs.com/svgjs" width="25" height="28"><svg width="25" height="28" viewBox="0 0 25 28" fill="none" xmlns="http://www.w3.org/2000/svg">
<mask id="SvgjsMask1000" style="mask-type:alpha" maskUnits="userSpaceOnUse" x="0" y="0" width="25" height="28">
<rect width="25" height="28" fill="#D9D9D9"></rect>
</mask>
<g mask="url(#mask0_656_1952)">
<path d="M12.016 2.664C14.3627 2.664 16.4213 3.12267 18.192 4.04C19.984 4.95733 21.36 6.26933 22.32 7.976C23.3013 9.66133 23.792 11.624 23.792 13.864C23.792 16.104 23.3013 18.0667 22.32 19.752C21.36 21.416 19.984 22.7067 18.192 23.624C16.4213 24.5413 14.3627 25 12.016 25H4.208V2.664H12.016ZM11.856 21.192C14.2027 21.192 16.016 20.552 17.296 19.272C18.576 17.992 19.216 16.1893 19.216 13.864C19.216 11.5387 18.576 9.72533 17.296 8.424C16.016 7.10133 14.2027 6.44 11.856 6.44H8.688V21.192H11.856ZM29.4175 5.16C28.6282 5.16 27.9668 4.91467 27.4335 4.424C26.9215 3.912 26.6655 3.28267 26.6655 2.536C26.6655 1.78933 26.9215 1.17067 27.4335 0.679998C27.9668 0.167999 28.6282 -0.0880013 29.4175 -0.0880013C30.2068 -0.0880013 30.8575 0.167999 31.3695 0.679998C31.9028 1.17067 32.1695 1.78933 32.1695 2.536C32.1695 3.28267 31.9028 3.912 31.3695 4.424C30.8575 4.91467 30.2068 5.16 29.4175 5.16ZM31.6255 7.272V25H27.1455V7.272H31.6255ZM42.9958 6.984C44.3184 6.984 45.4811 7.25067 46.4838 7.784C47.4864 8.296 48.2758 8.968 48.8518 9.8V7.272H53.3638V25.128C53.3638 26.7707 53.0331 28.232 52.3718 29.512C51.7104 30.8133 50.7184 31.8373 49.3958 32.584C48.0731 33.352 46.4731 33.736 44.5958 33.736C42.0784 33.736 40.0091 33.1493 38.3878 31.976C36.7878 30.8027 35.8811 29.2027 35.6678 27.176H40.1158C40.3504 27.9867 40.8518 28.6267 41.6198 29.096C42.4091 29.5867 43.3584 29.832 44.4678 29.832C45.7691 29.832 46.8251 29.4373 47.6358 28.648C48.4464 27.88 48.8518 26.7067 48.8518 25.128V22.376C48.2758 23.208 47.4758 23.9013 46.4518 24.456C45.4491 25.0107 44.2971 25.288 42.9958 25.288C41.5024 25.288 40.1371 24.904 38.8998 24.136C37.6624 23.368 36.6811 22.2907 35.9557 20.904C35.2517 19.496 34.8997 17.8853 34.8997 16.072C34.8997 14.28 35.2517 12.6907 35.9557 11.304C36.6811 9.91733 37.6518 8.85067 38.8678 8.104C40.1051 7.35733 41.4811 6.984 42.9958 6.984ZM48.8518 16.136C48.8518 15.048 48.6384 14.12 48.2118 13.352C47.7851 12.5627 47.2091 11.9653 46.4838 11.56C45.7584 11.1333 44.9798 10.92 44.1478 10.92C43.3158 10.92 42.5478 11.1227 41.8438 11.528C41.1398 11.9333 40.5638 12.5307 40.1158 13.32C39.6891 14.088 39.4758 15.0053 39.4758 16.072C39.4758 17.1387 39.6891 18.0773 40.1158 18.888C40.5638 19.6773 41.1398 20.2853 41.8438 20.712C42.5691 21.1387 43.3371 21.352 44.1478 21.352C44.9798 21.352 45.7584 21.1493 46.4838 20.744C47.2091 20.3173 47.7851 19.72 48.2118 18.952C48.6384 18.1627 48.8518 17.224 48.8518 16.136ZM60.0113 5.16C59.2219 5.16 58.5606 4.91467 58.0273 4.424C57.5153 3.912 57.2593 3.28267 57.2593 2.536C57.2593 1.78933 57.5153 1.17067 58.0273 0.679998C58.5606 0.167999 59.2219 -0.0880013 60.0113 -0.0880013C60.8006 -0.0880013 61.4513 0.167999 61.9633 0.679998C62.4966 1.17067 62.7633 1.78933 62.7633 2.536C62.7633 3.28267 62.4966 3.912 61.9633 4.424C61.4513 4.91467 60.8006 5.16 60.0113 5.16ZM62.2193 7.272V25H57.7393V7.272H62.2193ZM71.8615 10.952V19.528C71.8615 20.1253 72.0002 20.5627 72.2775 20.84C72.5762 21.096 73.0668 21.224 73.7495 21.224H75.8295V25H73.0135C69.2375 25 67.3495 23.1653 67.3495 19.496V10.952H65.2375V7.272H67.3495V2.888H71.8615V7.272H75.8295V10.952H71.8615ZM83.4678 2.664V16.488C83.4678 18.0027 83.8624 19.1653 84.6518 19.976C85.4411 20.7653 86.5504 21.16 87.9798 21.16C89.4304 21.16 90.5504 20.7653 91.3398 19.976C92.1291 19.1653 92.5238 18.0027 92.5238 16.488V2.664H97.0358V16.456C97.0358 18.3547 96.6198 19.9653 95.7878 21.288C94.9771 22.5893 93.8784 23.5707 92.4918 24.232C91.1264 24.8933 89.6011 25.224 87.9158 25.224C86.2518 25.224 84.7371 24.8933 83.3718 24.232C82.0278 23.5707 80.9611 22.5893 80.1718 21.288C79.3824 19.9653 78.9878 18.3547 78.9878 16.456V2.664H83.4678ZM114.74 25L109.908 17.48L105.524 25H100.468L107.508 13.736L100.372 2.664H105.524L110.356 10.152L114.708 2.664H119.764L112.756 13.896L119.892 25H114.74Z" fill="#3B71FE"></path>
</g>
</svg><style>@media (prefers-color-scheme: light) { :root { filter: none; } }
</style></svg>