<svg width="116" height="35" viewBox="0 0 116 35" fill="none" xmlns="http://www.w3.org/2000/svg">
<path d="M8.016 3.664C10.3627 3.664 12.4213 4.12267 14.192 5.04C15.984 5.95733 17.36 7.26933 18.32 8.976C19.3013 10.6613 19.792 12.624 19.792 14.864C19.792 17.104 19.3013 19.0667 18.32 20.752C17.36 22.416 15.984 23.7067 14.192 24.624C12.4213 25.5413 10.3627 26 8.016 26H0.208V3.664H8.016ZM7.856 22.192C10.2027 22.192 12.016 21.552 13.296 20.272C14.576 18.992 15.216 17.1893 15.216 14.864C15.216 12.5387 14.576 10.7253 13.296 9.424C12.016 8.10133 10.2027 7.44 7.856 7.44H4.688V22.192H7.856ZM25.4175 6.16C24.6282 6.16 23.9668 5.91467 23.4335 5.424C22.9215 4.912 22.6655 4.28267 22.6655 3.536C22.6655 2.78933 22.9215 2.17067 23.4335 1.68C23.9668 1.168 24.6282 0.911999 25.4175 0.911999C26.2068 0.911999 26.8575 1.168 27.3695 1.68C27.9028 2.17067 28.1695 2.78933 28.1695 3.536C28.1695 4.28267 27.9028 4.912 27.3695 5.424C26.8575 5.91467 26.2068 6.16 25.4175 6.16ZM27.6255 8.272V26H23.1455V8.272H27.6255ZM38.9958 7.984C40.3184 7.984 41.4811 8.25067 42.4838 8.784C43.4864 9.296 44.2758 9.968 44.8518 10.8V8.272H49.3638V26.128C49.3638 27.7707 49.0331 29.232 48.3718 30.512C47.7104 31.8133 46.7184 32.8373 45.3958 33.584C44.0731 34.352 42.4731 34.736 40.5958 34.736C38.0784 34.736 36.0091 34.1493 34.3878 32.976C32.7878 31.8027 31.8811 30.2027 31.6678 28.176H36.1158C36.3504 28.9867 36.8518 29.6267 37.6198 30.096C38.4091 30.5867 39.3584 30.832 40.4678 30.832C41.7691 30.832 42.8251 30.4373 43.6358 29.648C44.4464 28.88 44.8518 27.7067 44.8518 26.128V23.376C44.2758 24.208 43.4758 24.9013 42.4518 25.456C41.4491 26.0107 40.2971 26.288 38.9958 26.288C37.5024 26.288 36.1371 25.904 34.8998 25.136C33.6624 24.368 32.6811 23.2907 31.9557 21.904C31.2517 20.496 30.8997 18.8853 30.8997 17.072C30.8997 15.28 31.2517 13.6907 31.9557 12.304C32.6811 10.9173 33.6518 9.85067 34.8678 9.104C36.1051 8.35733 37.4811 7.984 38.9958 7.984ZM44.8518 17.136C44.8518 16.048 44.6384 15.12 44.2118 14.352C43.7851 13.5627 43.2091 12.9653 42.4838 12.56C41.7584 12.1333 40.9798 11.92 40.1478 11.92C39.3158 11.92 38.5478 12.1227 37.8438 12.528C37.1398 12.9333 36.5638 13.5307 36.1158 14.32C35.6891 15.088 35.4758 16.0053 35.4758 17.072C35.4758 18.1387 35.6891 19.0773 36.1158 19.888C36.5638 20.6773 37.1398 21.2853 37.8438 21.712C38.5691 22.1387 39.3371 22.352 40.1478 22.352C40.9798 22.352 41.7584 22.1493 42.4838 21.744C43.2091 21.3173 43.7851 20.72 44.2118 19.952C44.6384 19.1627 44.8518 18.224 44.8518 17.136ZM56.0113 6.16C55.2219 6.16 54.5606 5.91467 54.0273 5.424C53.5153 4.912 53.2593 4.28267 53.2593 3.536C53.2593 2.78933 53.5153 2.17067 54.0273 1.68C54.5606 1.168 55.2219 0.911999 56.0113 0.911999C56.8006 0.911999 57.4513 1.168 57.9633 1.68C58.4966 2.17067 58.7633 2.78933 58.7633 3.536C58.7633 4.28267 58.4966 4.912 57.9633 5.424C57.4513 5.91467 56.8006 6.16 56.0113 6.16ZM58.2193 8.272V26H53.7393V8.272H58.2193ZM67.8615 11.952V20.528C67.8615 21.1253 68.0002 21.5627 68.2775 21.84C68.5762 22.096 69.0668 22.224 69.7495 22.224H71.8295V26H69.0135C65.2375 26 63.3495 24.1653 63.3495 20.496V11.952H61.2375V8.272H63.3495V3.888H67.8615V8.272H71.8295V11.952H67.8615ZM79.4678 3.664V17.488C79.4678 19.0027 79.8624 20.1653 80.6518 20.976C81.4411 21.7653 82.5504 22.16 83.9798 22.16C85.4304 22.16 86.5504 21.7653 87.3398 20.976C88.1291 20.1653 88.5238 19.0027 88.5238 17.488V3.664H93.0358V17.456C93.0358 19.3547 92.6198 20.9653 91.7878 22.288C90.9771 23.5893 89.8784 24.5707 88.4918 25.232C87.1264 25.8933 85.6011 26.224 83.9158 26.224C82.2518 26.224 80.7371 25.8933 79.3718 25.232C78.0278 24.5707 76.9611 23.5893 76.1718 22.288C75.3824 20.9653 74.9878 19.3547 74.9878 17.456V3.664H79.4678ZM110.74 26L105.908 18.48L101.524 26H96.4683L103.508 14.736L96.3723 3.664H101.524L106.356 11.152L110.708 3.664H115.764L108.756 14.896L115.892 26H110.74Z" fill="#3B71FE"/>
</svg>
